HIERARCHY
ROOT root
{
	OFFSET	0	13.1	24.9
	CHANNELS 6  Xposition Yposition Zposition Xrotation Yrotation Zrotation
	JOINT spine_1
	{
		OFFSET	0	9.99999	0
		CHANNELS 3  Xrotation Yrotation Zrotation
		JOINT spine_2
		{
			OFFSET	0	112	-10
			CHANNELS 3  Xrotation Yrotation Zrotation
			JOINT spine_3
			{
				OFFSET	0	206.5	19.3
				CHANNELS 3  Xrotation Yrotation Zrotation
				JOINT spine_4
				{
					OFFSET	0	110.4	14.6
					CHANNELS 3  Xrotation Yrotation Zrotation
					JOINT neck_1
					{
						OFFSET	0	71.8	-50.3
						CHANNELS 3  Xrotation Yrotation Zrotation
						JOINT neck_2
						{
							OFFSET	0	86.2	-25.8
							CHANNELS 3  Xrotation Yrotation Zrotation
							JOINT head_ee
							{
								OFFSET	0	179.8	-8.7
								CHANNELS 3  Xrotation Yrotation Zrotation
								End Site
								{
									OFFSET	1	0	0
								}
							}
						}
					}
					JOINT left_clavicle
					{
						OFFSET	-43.2	22.4	-70.8
						CHANNELS 3  Xrotation Yrotation Zrotation
						JOINT left_shoulder
						{
							OFFSET	-93.9	-5.79999	48.7
							CHANNELS 3  Xrotation Yrotation Zrotation
							JOINT left_elbow
							{
								OFFSET	-291.4	-30.8	15.2
								CHANNELS 3  Xrotation Yrotation Zrotation
								JOINT left_lowarm_twist
								{
									OFFSET	-110.7	-3.89999	13.6
									CHANNELS 3  Xrotation Yrotation Zrotation
									JOINT left_hand
									{
										OFFSET	-110.7	-3.89999	13.6
										CHANNELS 3  Xrotation Yrotation Zrotation
										JOINT left_ee
										{
											OFFSET	-80.8	-5.10001	12.1
											CHANNELS 3  Xrotation Yrotation Zrotation
											End Site
											{
												OFFSET	1	0	0
											}
										}
									}
								}
							}
						}
					}
					JOINT right_clavicle
					{
						OFFSET	43.2	22.4	-70.8
						CHANNELS 3  Xrotation Yrotation Zrotation
						JOINT right_shoulder
						{
							OFFSET	93.9	-5.79999	48.7
							CHANNELS 3  Xrotation Yrotation Zrotation
							JOINT right_elbow
							{
								OFFSET	291.4	-30.8	15.2
								CHANNELS 3  Xrotation Yrotation Zrotation
								JOINT right_lowarm_twist
								{
									OFFSET	110.7	-3.89999	13.6
									CHANNELS 3  Xrotation Yrotation Zrotation
									JOINT right_hand
									{
										OFFSET	110.7	-3.89999	13.6
										CHANNELS 3  Xrotation Yrotation Zrotation
										JOINT right_ee
										{
											OFFSET	80.8	-5.10001	12.1
											CHANNELS 3  Xrotation Yrotation Zrotation
											End Site
											{
												OFFSET	1	0	0
											}
										}
									}
								}
							}
						}
					}
				}
			}
		}
	}
	JOINT left_hip
	{
		OFFSET	-82.8	-127.5	0.300001
		CHANNELS 3  Xrotation Yrotation Zrotation
		JOINT left_knee
		{
			OFFSET	-28.2	-396.7	2.2
			CHANNELS 3  Xrotation Yrotation Zrotation
			JOINT left_ankle
			{
				OFFSET	-11.7	-411.3	35.4
				CHANNELS 3  Xrotation Yrotation Zrotation
				JOINT left_toes
				{
					OFFSET	0	-60	-88.6
					CHANNELS 3  Xrotation Yrotation Zrotation
					JOINT left_foot_ee
					{
						OFFSET	-22.5	-16.5	-42.2
						CHANNELS 3  Xrotation Yrotation Zrotation
						End Site
						{
							OFFSET	1	0	0
						}
					}
				}
			}
		}
	}
	JOINT right_hip
	{
		OFFSET	82.8	-127.5	0.300001
		CHANNELS 3  Xrotation Yrotation Zrotation
		JOINT right_knee
		{
			OFFSET	28.2	-396.7	2.2
			CHANNELS 3  Xrotation Yrotation Zrotation
			JOINT right_ankle
			{
				OFFSET	11.7	-411.3	35.4
				CHANNELS 3  Xrotation Yrotation Zrotation
				JOINT right_toes
				{
					OFFSET	0	-60	-88.6
					CHANNELS 3  Xrotation Yrotation Zrotation
					JOINT right_foot_ee
					{
						OFFSET	22.5	-16.5	-42.2
						CHANNELS 3  Xrotation Yrotation Zrotation
						End Site
						{
							OFFSET	1	0	0
						}
					}
				}
			}
		}
	}
}
MOTION
Frames: 10
Frame Time: 0.02
2467.17770094 750.739 -1476.37674589 -176.306046109 58.874867604 172.938423852 2.73372 0.271617 1.53622 2.73501 0.173325 1.55038 2.73942 -0.0820358 1.55788 2.73607 0.165002 1.55129 -8.77429 -1.49328 2.44437 -8.75917 -4.49592 2.06507 -0.0 0.0 -0.0 -0.925594 -5.81276 -2.56463 -34.4845 -46.1714 55.8568 0.673142 -18.4413 0.109275 -20.3651 -1.14376 2.32565 1.38097 12.2369 13.9141 -0.0 0.0 -0.0 9.40369 -13.5045 -17.3757 -17.6824 8.10162 -53.8703 2.6053 52.2213 -1.27709 32.3563 0.0124649 4.07885 3.82392 13.4243 -20.4119 0.0 0.0 0.0 10.2823 1.09851 -2.0995 -20.5757 0.28835 3.1274 2.12926 -27.4277 -0.381897 14.7407 -0.0 -0.0 -0.0 0.0 -0.0 6.6593 -43.6426 -0.941357 -3.02321 -0.112617 -0.450245 5.33059 16.2036 0.844263 1.3941 -0.0 -0.0 0.0 0.0 0.0 
2460.75193442 744.882 -1466.76754069 -176.210700199 56.2535863541 172.728207571 2.70004 0.241619 1.80632 2.70185 0.126208 1.81803 2.70545 -0.173318 1.81415 2.70088 0.115319 1.81875 -9.78455 -1.69508 1.43623 -9.78291 -4.16355 0.987197 -0.0 0.0 -0.0 -1.04914 -5.478 -2.77038 -34.7674 -46.1451 55.8776 0.642284 -17.6495 0.0997162 -20.3256 -1.14076 2.32157 1.31998 11.3425 13.196 -0.0 0.0 -0.0 9.18949 -13.5573 -16.9922 -16.2827 6.86522 -53.3514 2.90897 55.2304 -1.52199 32.4753 0.0167621 4.09344 3.73328 12.3442 -20.2958 0.0 0.0 0.0 10.2215 2.14019 -2.58738 -17.119 0.318811 2.59797 -1.12571 -28.2929 0.206149 14.3299 -0.0 -0.0 -0.0 0.0 -0.0 7.14132 -42.14 -0.242405 -3.17761 -0.117728 -0.47339 5.80874 15.4258 0.912975 1.62039 -0.0 -0.0 0.0 0.0 0.0 
2454.89897989 753.556 -1469.14472184 -176.802262309 56.8952656887 172.796114782 2.41566 0.239074 1.75927 2.41737 0.12666 1.77091 2.42104 -0.173924 1.76689 2.4167 0.107262 1.77219 -9.64853 -2.17941 -2.04663 -9.6394 -2.70106 -2.52972 -0.0 0.0 -0.0 -0.814567 -4.71804 -2.19663 -33.9038 -46.0832 55.9633 0.647974 -17.7961 0.101448 -20.169 -1.1289 2.3054 1.13726 8.25483 10.8558 -0.0 0.0 -0.0 8.90756 -14.0991 -16.4404 -16.4097 6.21404 -53.0631 3.01543 56.188 -1.60995 31.1023 -0.0309722 3.92459 3.47094 9.44293 -19.7974 0.0 0.0 0.0 10.9134 3.99978 -1.59352 -5.58844 0.189419 0.836405 -11.8666 -28.0165 2.21285 12.8047 -0.0 -0.0 -0.0 0.0 -0.0 6.61026 -37.0081 0.172066 -3.73182 -0.135561 -0.556575 6.85453 17.5443 1.09169 2.07694 -0.0 -0.0 0.0 0.0 0.0 
2448.36210827 757.351 -1471.90915081 -176.528886524 57.1625079144 172.998520948 2.33846 0.23359 1.56397 2.33981 0.13361 1.57566 2.34332 -0.136257 1.57544 2.33988 0.114232 1.57719 -8.84275 -2.64975 -5.03353 -8.77302 -1.46579 -5.56103 -0.0 0.0 -0.0 -0.717671 -4.25394 -1.94172 -33.6403 -45.9087 55.9096 0.650369 -17.8577 0.102181 -20.0581 -1.12053 2.29393 1.01042 5.68057 9.02853 -0.0 0.0 -0.0 8.89114 -14.1243 -16.4092 -16.4148 5.89311 -53.1104 3.10295 56.9411 -1.68299 30.001 -0.0663251 3.78837 3.24198 7.00201 -19.2671 0.0 0.0 0.0 11.7264 5.10952 -0.708051 3.87773 -0.178998 -0.567936 -20.5521 -27.8664 3.84766 11.5924 -0.0 -0.0 -0.0 0.0 -0.0 5.32381 -32.7713 0.604164 -4.19271 -0.149777 -0.625879 7.15762 19.3275 1.1565 2.3425 -0.0 -0.0 0.0 0.0 0.0 
2436.1143565 762.927 -1479.77869718 -178.065084734 59.8019673708 174.625277918 1.86211 0.280835 1.54618 1.86342 0.18189 1.56091 1.86842 -0.0991591 1.56834 1.86502 0.149745 1.56432 -9.35009 -2.74129 -6.01928 -9.24921 -1.00953 -6.54918 -0.0 0.0 -0.0 -0.159612 -4.02678 -0.797709 -33.5942 -45.1886 55.6246 0.664464 -18.2194 0.106546 -19.9259 -1.11058 2.28022 0.930171 5.09278 8.26576 -0.0 0.0 -0.0 8.75579 -13.513 -16.2367 -16.6819 5.98816 -53.1095 2.98914 55.9559 -1.58814 30.0449 -0.0649668 3.79381 3.15196 6.12372 -19.0118 0.0 0.0 0.0 12.5751 4.88413 0.837989 5.56352 -0.26875 -0.810894 -21.308 -28.961 4.04735 12.028 -0.0 -0.0 -0.0 0.0 -0.0 3.79252 -32.3766 -2.47833 -4.95944 -0.172189 -0.741412 8.14748 20.4853 1.32564 2.73245 -0.0 -0.0 0.0 0.0 0.0 
2423.06210189 751.81 -1493.0185199 -178.086344072 61.9578759143 175.484064718 1.67174 0.0453326 1.58369 1.67314 -0.0555209 1.58337 1.67161 -0.342176 1.54696 1.66828 -0.0936008 1.58157 -9.44593 -2.90985 -6.19234 -9.3394 -1.21834 -6.75812 -0.0 0.0 -0.0 0.497687 -2.92543 0.635324 -31.7662 -44.7007 54.2909 0.741349 -20.1654 0.131825 -19.8851 -1.10752 2.27599 0.676108 3.24207 5.84059 -0.0 0.0 -0.0 8.66866 -11.626 -16.2602 -18.4142 5.78204 -54.4645 2.50723 51.1526 -1.20014 29.6836 -0.0760252 3.74899 2.87934 2.19695 -18.7384 0.0 0.0 0.0 13.2871 6.24276 -0.0437466 5.04631 -0.240452 -0.736629 -17.7862 -29.8529 3.41739 14.6275 -0.0 -0.0 -0.0 0.0 -0.0 3.84991 -34.3578 -0.0397731 -9.09 -0.266193 -1.36818 9.55412 19.5941 1.53323 3.51141 -0.0 -0.0 0.0 0.0 0.0 
2420.7290719 754.02 -1493.862928 -177.812889993 63.1233959664 175.166608097 1.66191 -0.0686 1.67993 1.66346 -0.175344 1.67216 1.65829 -0.476564 1.61239 1.65473 -0.215973 1.6674 -8.90979 -2.98009 -5.89841 -8.81372 -1.49012 -6.48717 -0.0 0.0 -0.0 0.491239 -2.35121 0.686376 -31.4682 -44.1739 53.9962 0.74284 -20.2026 0.13234 -19.9079 -1.10923 2.27835 0.601776 2.56032 5.07009 -0.0 0.0 -0.0 8.68381 -11.2857 -16.3171 -18.8658 5.69963 -55.0796 2.27027 48.3503 -1.01922 29.4334 -0.0835198 3.71791 2.7936 0.748546 -18.7207 0.0 0.0 0.0 13.0739 6.31653 -0.420964 3.48004 -0.158873 -0.510252 -16.8856 -29.7251 3.23708 15.912 -0.0 -0.0 -0.0 0.0 -0.0 4.17034 -35.1845 1.12872 -9.8505 -0.278561 -1.48422 10.2573 18.7801 1.62953 3.83423 -0.0 -0.0 0.0 0.0 0.0 
2409.17555069 749.474 -1502.52323031 -177.663501374 68.3053183358 175.273135902 1.47995 -0.113576 1.75745 1.48164 -0.22516 1.74666 1.47476 -0.5445 1.67485 1.47095 -0.273198 1.7398 -8.07155 -2.86398 -4.97841 -8.00397 -1.82786 -5.55371 -0.0 0.0 -0.0 0.519301 -0.446016 0.951755 -28.1722 -43.7137 54.8028 0.798213 -21.5743 0.152084 -20.1619 -1.12837 2.30467 0.496594 0.251095 3.42194 -0.0 0.0 -0.0 9.16174 -8.50045 -17.4325 -20.5662 7.4467 -56.8098 1.71207 40.2982 -0.628233 29.4764 -0.0822406 3.72326 2.26743 -4.89889 -17.2253 0.0 0.0 0.0 12.2715 6.47259 -1.08949 0.98672 -0.0418877 -0.145621 -16.2941 -29.5008 3.11287 17.1701 -0.0 -0.0 -0.0 0.0 -0.0 4.56616 -36.6676 1.45321 -10.632 -0.289666 -1.60362 10.1314 18.6147 1.60804 3.93824 -0.0 -0.0 0.0 0.0 0.0 
2409.10926216 749.474 -1501.6053172 -177.677170037 68.1711953712 175.287853421 1.47995 -0.113576 1.75745 1.48164 -0.22516 1.74666 1.47476 -0.5445 1.67485 1.47095 -0.273198 1.7398 -8.07155 -2.86398 -4.97841 -8.00397 -1.82786 -5.55371 -0.0 0.0 -0.0 0.519301 -0.446016 0.951755 -28.1722 -43.7137 54.8028 0.798213 -21.5743 0.152084 -20.1619 -1.12837 2.30467 0.496594 0.251095 3.42194 -0.0 0.0 -0.0 9.16174 -8.50045 -17.4325 -20.5662 7.4467 -56.8098 1.71207 40.2982 -0.628233 29.4764 -0.0822406 3.72326 2.26743 -4.89889 -17.2253 0.0 0.0 0.0 12.2715 6.47259 -1.08949 0.98672 -0.0418877 -0.145621 -16.2941 -29.5008 3.11287 17.1701 -0.0 -0.0 -0.0 0.0 -0.0 4.56616 -36.6676 1.45321 -10.632 -0.289666 -1.60362 10.1314 18.6147 1.60804 3.93824 -0.0 -0.0 0.0 0.0 0.0 
2409.29160187 749.474 -1504.06297344 -177.640173615 68.5303506242 175.2480494 1.47995 -0.113576 1.75745 1.48164 -0.22516 1.74666 1.47476 -0.5445 1.67485 1.47095 -0.273198 1.7398 -8.07155 -2.86398 -4.97841 -8.00397 -1.82786 -5.55371 -0.0 0.0 -0.0 0.519301 -0.446016 0.951755 -28.1722 -43.7137 54.8028 0.798213 -21.5743 0.152084 -20.1619 -1.12837 2.30467 0.496594 0.251095 3.42194 -0.0 0.0 -0.0 9.16174 -8.50045 -17.4325 -20.5662 7.4467 -56.8098 1.71207 40.2982 -0.628233 29.4764 -0.0822406 3.72326 2.26743 -4.89889 -17.2253 0.0 0.0 0.0 12.2715 6.47259 -1.08949 0.98672 -0.0418877 -0.145621 -16.2941 -29.5008 3.11287 17.1701 -0.0 -0.0 -0.0 0.0 -0.0 4.56616 -36.6676 1.45321 -10.632 -0.289666 -1.60362 10.1314 18.6147 1.60804 3.93824 -0.0 -0.0 0.0 0.0 0.0 
